<?xml version="1.0" encoding="UTF-8" standalone="no"?>
<svg
   class="svglite"
   width="144.00pt"
   height="144.00pt"
   viewBox="0 0 144.00 144.00"
   version="1.1"
   id="svg94745"
   sodipodi:docname="sigma.svg"
   xmlns:inkscape="http://www.inkscape.org/namespaces/inkscape"
   xmlns:sodipodi="http://sodipodi.sourceforge.net/DTD/sodipodi-0.dtd"
   xmlns="http://www.w3.org/2000/svg"
   xmlns:svg="http://www.w3.org/2000/svg">
  <sodipodi:namedview
     id="namedview94747"
     pagecolor="#ffffff"
     bordercolor="#000000"
     borderopacity="0.25"
     inkscape:showpageshadow="2"
     inkscape:pageopacity="0.0"
     inkscape:pagecheckerboard="0"
     inkscape:deskcolor="#d1d1d1"
     inkscape:document-units="pt"
     showgrid="false"
     showguides="true" />
  <defs
     id="defs94679">
    <style
       type="text/css"
       id="style94677"><![CDATA[
    .svglite line, .svglite polyline, .svglite polygon, .svglite path, .svglite rect, .svglite circle {
      fill: none;
      stroke: #000000;
      stroke-linecap: round;
      stroke-linejoin: round;
      stroke-miterlimit: 10.00;
    }
    .svglite text {
      white-space: pre;
    }
  ]]></style>
  </defs>
  <rect
     width="100%"
     height="100%"
     style="stroke: none; fill: #FFFFFF;"
     id="rect94681" />
  <defs
     id="defs94686">
    <clipPath
       id="cpMC4wMHwxNDQuMDB8MC4wMHwxNDQuMDA=">
      <rect
         x="0.00"
         y="0.00"
         width="144.00"
         height="144.00"
         id="rect94683" />
    </clipPath>
  </defs>
  <defs
     id="defs94695">
    <clipPath
       id="cpMzYuODJ8MTM4LjUyfDI4LjEyfDExNC4yNw==">
      <rect
         x="36.82"
         y="28.12"
         width="101.70"
         height="86.15"
         id="rect94692" />
    </clipPath>
  </defs>
  <g
     clip-path="url(#cpMzYuODJ8MTM4LjUyfDI4LjEyfDExNC4yNw==)"
     id="g94727">
    <rect
       x="36.82"
       y="28.12"
       width="101.70"
       height="86.15"
       style="stroke-width: 1.07; stroke: none; fill: #FFFFFF;"
       id="rect94697" />
    <polyline
       points="36.82,71.19 138.52,71.19 "
       style="stroke-width: 0.53; stroke: #EBEBEB; stroke-linecap: butt;"
       id="polyline94699" />
    <polyline
       points="53.00,114.27 53.00,28.12 "
       style="stroke-width: 0.53; stroke: #EBEBEB; stroke-linecap: butt;"
       id="polyline94701" />
    <polyline
       points="76.11,114.27 76.11,28.12 "
       style="stroke-width: 0.53; stroke: #EBEBEB; stroke-linecap: butt;"
       id="polyline94703" />
    <polyline
       points="99.23,114.27 99.23,28.12 "
       style="stroke-width: 0.53; stroke: #EBEBEB; stroke-linecap: butt;"
       id="polyline94705" />
    <polyline
       points="122.34,114.27 122.34,28.12 "
       style="stroke-width: 0.53; stroke: #EBEBEB; stroke-linecap: butt;"
       id="polyline94707" />
    <polyline
       points="36.82,110.35 138.52,110.35 "
       style="stroke-width: 1.07; stroke: #EBEBEB; stroke-linecap: butt;"
       id="polyline94709" />
    <polyline
       points="36.82,32.03 138.52,32.03 "
       style="stroke-width: 1.07; stroke: #EBEBEB; stroke-linecap: butt;"
       id="polyline94711" />
    <polyline
       points="41.44,114.27 41.44,28.12 "
       style="stroke-width: 1.07; stroke: #EBEBEB; stroke-linecap: butt;"
       id="polyline94713" />
    <polyline
       points="64.55,114.27 64.55,28.12 "
       style="stroke-width: 1.07; stroke: #EBEBEB; stroke-linecap: butt;"
       id="polyline94715" />
    <polyline
       points="87.67,114.27 87.67,28.12 "
       style="stroke-width: 1.07; stroke: #EBEBEB; stroke-linecap: butt;"
       id="polyline94717" />
    <polyline
       points="110.78,114.27 110.78,28.12 "
       style="stroke-width: 1.07; stroke: #EBEBEB; stroke-linecap: butt;"
       id="polyline94719" />
    <polyline
       points="133.90,114.27 133.90,28.12 "
       style="stroke-width: 1.07; stroke: #EBEBEB; stroke-linecap: butt;"
       id="polyline94721" />
    <polyline
       points="41.44,108.95 42.37,108.83 43.31,108.70 44.24,108.57 45.18,108.42 46.11,108.26 47.04,108.09 47.98,107.91 48.91,107.71 49.85,107.49 50.78,107.26 51.71,107.01 52.65,106.75 53.58,106.46 54.51,106.15 55.45,105.81 56.38,105.45 57.32,105.07 58.25,104.66 59.18,104.22 60.12,103.74 61.05,103.24 61.99,102.70 62.92,102.12 63.85,101.51 64.79,100.85 65.72,100.16 66.66,99.42 67.59,98.63 68.52,97.81 69.46,96.93 70.39,96.01 71.33,95.04 72.26,94.02 73.19,92.95 74.13,91.83 75.06,90.66 75.99,89.45 76.93,88.18 77.86,86.88 78.80,85.53 79.73,84.14 80.66,82.71 81.60,81.25 82.53,79.76 83.47,78.24 84.40,76.69 85.33,75.14 86.27,73.56 87.20,71.98 88.14,70.40 89.07,68.82 90.00,67.25 90.94,65.69 91.87,64.15 92.81,62.63 93.74,61.14 94.67,59.68 95.61,58.25 96.54,56.86 97.47,55.51 98.41,54.20 99.34,52.94 100.28,51.73 101.21,50.56 102.14,49.44 103.08,48.37 104.01,47.35 104.95,46.38 105.88,45.46 106.81,44.58 107.75,43.75 108.68,42.97 109.62,42.23 110.55,41.54 111.48,40.88 112.42,40.27 113.35,39.69 114.29,39.15 115.22,38.64 116.15,38.17 117.09,37.73 118.02,37.32 118.96,36.93 119.89,36.57 120.82,36.24 121.76,35.93 122.69,35.64 123.62,35.37 124.56,35.12 125.49,34.89 126.43,34.68 127.36,34.48 128.29,34.29 129.23,34.12 130.16,33.97 131.10,33.82 132.03,33.68 132.96,33.56 133.90,33.44 "
       style="stroke-width: 4.27; stroke-linecap: butt;"
       id="polyline94723" />
    <rect
       x="36.82"
       y="28.12"
       width="101.70"
       height="86.15"
       style="stroke-width: 1.07; stroke: #333333;"
       id="rect94725" />
  </g>
  <g
     clip-path="url(#cpMC4wMHwxNDQuMDB8MC4wMHwxNDQuMDA=)"
     id="g94743">
    <text
       x="31.89"
       y="113.51"
       text-anchor="end"
       style="font-size: 8.80px;fill: #4D4D4D; font-family: &quot;Arial&quot;;"
       textLength="4.90px"
       lengthAdjust="spacingAndGlyphs"
       id="text94729">0</text>
    <text
       x="31.89"
       y="35.19"
       text-anchor="end"
       style="font-size: 8.80px;fill: #4D4D4D; font-family: &quot;Arial&quot;;"
       textLength="4.90px"
       lengthAdjust="spacingAndGlyphs"
       id="text94731">1</text>
    <polyline
       points="34.08,110.35 36.82,110.35 "
       style="stroke-width: 1.07; stroke: #333333; stroke-linecap: butt;"
       id="polyline94733" />
    <polyline
       points="34.08,32.03 36.82,32.03 "
       style="stroke-width: 1.07; stroke: #333333; stroke-linecap: butt;"
       id="polyline94735" />
    <text
       x="87.67"
       y="134.10"
       text-anchor="middle"
       style="font-size: 20.00px; font-family: &quot;Arial&quot;;"
       textLength="43.37px"
       lengthAdjust="spacingAndGlyphs"
       id="text94737">input</text>
    <text
       transform="translate(19.83,71.19) rotate(-90)"
       text-anchor="middle"
       style="font-size: 20.00px; font-family: &quot;Arial&quot;;"
       textLength="55.61px"
       lengthAdjust="spacingAndGlyphs"
       id="text94739">output</text>
    <text
       x="36.82"
       y="17.06"
       style="font-size: 24.00px; font-family: &quot;Symbol&quot;;"
       textLength="14.47px"
       lengthAdjust="spacingAndGlyphs"
       id="text94741">σ</text>
  </g>
</svg>
